<svg width="72" height="72" viewBox="0 0 72 72" fill="none" xmlns="http://www.w3.org/2000/svg">
<g clip-path="url(#clip0_164_456)">
<rect width="72" height="72" rx="17.0769" fill="#FEFBFF"/>
<path d="M32.467 25.498C34.9953 28.5335 36.3798 32.359 36.3798 36.3094C36.3798 40.2598 34.9953 44.0853 32.467 47.1207" stroke="url(#paint0_linear_164_456)" stroke-width="3" stroke-linecap="round" stroke-linejoin="round"/>
<path d="M37.9188 20C41.8748 24.488 44.0575 30.2651 44.0575 36.2477C44.0575 42.2304 41.8748 48.0075 37.9188 52.4954" stroke="url(#paint1_linear_164_456)" stroke-width="3" stroke-linecap="round" stroke-linejoin="round"/>
<path d="M27 30.9189C28.1077 32.478 28.7027 34.3431 28.7027 36.2555C28.7027 38.168 28.1077 40.033 27 41.5921" stroke="url(#paint2_linear_164_456)" stroke-width="3" stroke-linecap="round" stroke-linejoin="round"/>
</g>
<defs>
<linearGradient id="paint0_linear_164_456" x1="35.8515" y1="43.7692" x2="30.7985" y2="42.9759" gradientUnits="userSpaceOnUse">
<stop offset="1" stop-color="#F35F1C"/>
</linearGradient>
<linearGradient id="paint1_linear_164_456" x1="43.2288" y1="47.4586" x2="35.3182" y2="46.1622" gradientUnits="userSpaceOnUse">
<stop offset="1" stop-color="#F35F1C"/>
</linearGradient>
<linearGradient id="paint2_linear_164_456" x1="28.4729" y1="39.9377" x2="26.2621" y2="39.6318" gradientUnits="userSpaceOnUse">
<stop offset="1" stop-color="#F35F1C"/>
</linearGradient>
<clipPath id="clip0_164_456">
<rect width="72" height="72" fill="white"/>
</clipPath>
</defs>
</svg>
