<svg width="40" height="40" viewBox="0 0 40 40" fill="none" xmlns="http://www.w3.org/2000/svg">
<g id="Group 701">
<path id="Vector 1901" d="M32.5197 38.195H30.7357C28.5251 38.195 27.4198 38.195 26.7331 37.5239C26.0464 36.8527 26.0464 35.7725 26.0464 33.6122V26.2797C26.0464 21.3297 26.0464 18.8547 27.5372 18.285C29.0281 17.7154 30.7459 19.534 34.1814 23.1713L35.9655 25.0601C36.5799 25.7106 36.8871 26.0359 37.0481 26.4383C37.2091 26.8406 37.2091 27.2833 37.2091 28.1686V33.6122C37.2091 35.7725 37.2091 36.8527 36.5223 37.5239C35.8356 38.195 34.7303 38.195 32.5197 38.195Z" fill="#F35F1C"/>
<path id="Vector 1901 (Stroke)" fill-rule="evenodd" clip-rule="evenodd" d="M32.5197 39.9998H30.7357C30.6992 39.9998 30.6628 39.9998 30.6265 39.9998C29.6155 39.9999 28.6789 40 27.915 39.8997C27.0702 39.7887 26.1642 39.5258 25.4175 38.7961L26.7331 37.5105C27.4198 38.1816 28.5251 38.1816 30.7357 38.1816H32.5197C34.7303 38.1816 35.8356 38.1816 36.5223 37.5105C37.209 36.8393 37.209 35.7591 37.209 33.5988V28.1551C37.209 27.2699 37.209 26.8272 37.0481 26.4248C36.8871 26.0225 36.5799 25.6972 35.9654 25.0467L34.1814 23.1579C30.7459 19.5206 29.0281 17.7019 27.5372 18.2716C26.0463 18.8413 26.0463 21.3163 26.0463 26.2663V33.5988C26.0463 35.7591 26.0463 36.8393 26.7331 37.5105L25.4175 38.7961C24.6709 38.0664 24.4019 37.1809 24.2883 36.3553C24.1856 35.6089 24.1857 34.6935 24.1859 33.7055C24.1859 33.67 24.1859 33.6344 24.1859 33.5988L24.1859 26.1179C24.1858 23.7692 24.1857 21.8103 24.39 20.3757C24.5852 19.0045 25.0749 17.2602 26.8597 16.5783C28.6446 15.8963 30.215 16.8534 31.3101 17.7315C32.4559 18.6503 33.8154 20.0897 35.4455 21.8156C35.4797 21.8518 35.514 21.8882 35.5485 21.9247L37.3325 23.8135C37.3727 23.8561 37.4135 23.899 37.4547 23.9424C37.9436 24.4568 38.4872 25.0289 38.7808 25.7628C39.0744 26.4966 39.072 27.2773 39.0699 27.9794C39.0697 28.0386 39.0695 28.0972 39.0695 28.1551V33.5988C39.0695 33.6344 39.0695 33.67 39.0695 33.7055C39.0696 34.6935 39.0698 35.6089 38.9671 36.3553C38.8535 37.1809 38.5845 38.0664 37.8378 38.7961C37.0912 39.5258 36.1851 39.7887 35.3403 39.8997C34.5765 40 33.6399 39.9999 32.6289 39.9998C32.5926 39.9998 32.5562 39.9998 32.5197 39.9998Z" fill="white"/>
<path id="Union" fill-rule="evenodd" clip-rule="evenodd" d="M30.5646 1.81836H1.86044V11.5287H20.5924L1.91671 29.7141L8.9298 36.5928L37.5776 8.69706L30.5646 1.81836Z" fill="#F35F1C"/>
<path id="Union (Stroke)" fill-rule="evenodd" clip-rule="evenodd" d="M0 1.81819C0 0.814033 0.832953 0 1.86045 0H30.5646C31.0592 0 31.5334 0.192466 31.8825 0.534872L38.8956 7.41357C39.6208 8.12491 39.6187 9.27612 38.8908 9.98488L10.243 37.8806C9.51509 38.5894 8.33711 38.5873 7.61188 37.8759L0.598795 30.9972C0.250526 30.6556 0.0553734 30.1928 0.0562686 29.7106C0.0571638 29.2284 0.254033 28.7663 0.603568 28.4259L16.0893 13.3467H1.86045C0.832953 13.3467 0 12.5327 0 11.5285V1.81819ZM20.5924 11.5285L1.91672 29.7139L8.92981 36.5926L37.5777 8.69689L30.5646 1.81819H1.86045V11.5285H20.5924Z" fill="white"/>
</g>
</svg>
