<svg width="40" height="40" viewBox="0 0 40 40" fill="none" xmlns="http://www.w3.org/2000/svg">
<g id="logo-orange">
<g id="Group 709">
<g id="Group 702">
<path  d="M24.0136 36.3041L23.399 36.9048C22.9977 36.3622 22.8229 35.7446 22.7373 35.1222C22.6403 34.4169 22.6394 33.5398 22.6395 32.5405L22.6395 32.4337L22.6395 24.9529V24.9529C22.6395 22.589 22.6406 20.6723 22.8387 19.2812C23.0313 17.9286 23.4879 16.455 24.9919 15.8803C26.5018 15.3033 27.8688 16.0888 28.951 16.9566C30.0634 17.8485 31.3955 19.2573 33.0356 20.9939L33.3991 20.6506L33.0356 20.9939L33.1387 21.1029L34.9227 22.9918L35.2862 22.6484L34.9227 22.9918C34.9635 23.0349 35.0047 23.0784 35.0458 23.1216L35.046 23.1217C35.5452 23.6471 36.0179 24.1528 36.2702 24.7835C36.5221 25.4131 36.5257 26.0963 36.5235 26.8128C36.5234 26.8719 36.5232 26.9312 36.5232 26.9901V32.4337L36.5232 32.5405C36.5233 33.5398 36.5224 34.4169 36.4254 35.1222C36.3197 35.8906 36.0781 36.6519 35.442 37.2735C34.8044 37.8967 34.0207 38.1349 33.2289 38.2389C32.5045 38.3341 31.6044 38.3349 30.5826 38.3348L30.4734 38.3347H28.6893L28.5801 38.3348C27.5583 38.3349 26.6582 38.3341 25.9338 38.2389C25.2993 38.1555 24.6701 37.986 24.117 37.6013L24.7253 37.0068C25.103 37.2406 25.5446 37.3618 26.0515 37.4284C26.7225 37.5166 27.5785 37.5166 28.6529 37.5166H28.6893H30.4734H30.5098C31.5842 37.5166 32.4402 37.5166 33.1113 37.4284C33.8031 37.3375 34.3733 37.1449 34.8254 36.703C35.2792 36.2596 35.4784 35.6977 35.5722 35.0162C35.6627 34.3581 35.6627 33.5196 35.6627 32.4716V32.4337V26.9901C35.6627 26.9581 35.6627 26.9265 35.6627 26.8953C35.663 26.1017 35.6632 25.5672 35.466 25.0741C35.2691 24.582 34.8994 24.1909 34.3484 23.6079C34.3267 23.585 34.3048 23.5618 34.2826 23.5383L32.4986 21.6495L32.4669 21.616C30.7758 19.8256 29.4688 18.4418 28.3965 17.582C27.3358 16.7315 26.3312 16.2502 25.3124 16.6395C24.2878 17.031 23.8808 18.0602 23.6914 19.3908C23.5 20.7347 23.5 22.6189 23.5 25.054V25.1013V32.4337L23.5 32.4716C23.5 33.5196 23.5 34.3581 23.5905 35.0162C23.6581 35.5076 23.7805 35.9367 24.0136 36.3041Z" stroke="#F35F1C" stroke-linejoin="round"/>
<path  d="M34.2865 7.8761L7.07189 34.3762L1.48701 28.8983L19.4296 11.4268C19.7211 11.1429 19.8116 10.7108 19.6584 10.3338C19.5052 9.95688 19.1388 9.71035 18.732 9.71035H1V2H28.2956L34.2865 7.8761Z" stroke="#F35F1C" stroke-width="2" stroke-linejoin="round"/>
</g>
</g>
</g>
</svg>
